# xmcd
#
# Track frame offsets: 
#        150
#        16042
#        31075
#        49587
#        64752
#        83152
#        106585
#        124250
#        142527
#        158727
#        174967
#        191690
#        208570
#        225330
#        241990
#        257452
#
# Disc length: 3639 seconds
#
# Revision: 7
# Processed by: cddbd v1.5.2PL0 Copyright (c) Steve Scherf et al.
# Submitted via: ExactAudioCopy v1.3
#
DISCID=b30e3510
DTITLE=Britney Spears - ...Baby One More Time
DYEAR=1999
DGENRE=Pop
TTITLE0=Baby One More Time
TTITLE1=(You Drive Me) Crazy
TTITLE2=Sometimes
TTITLE3=Soda Pop
TTITLE4=Born To Make You Happy
TTITLE5=From The Bottom Of My Broken Heart
TTITLE6=I Will Be There
TTITLE7=I Will Still Love You (Duet with Don Philip)
TTITLE8=Deep In My Heart
TTITLE9=Thinkin' About You
TTITLE10=E-Mail My Heart
TTITLE11=The Beat Goes On
TTITLE12=I'll Never Stop Loving You
TTITLE13=Autumn Goodbye
TTITLE14=Baby One More Time (Davidson Ospina Radio Mix)
TTITLE15=Baby One More Time (Boy Wunder Radio Mix)
EXTD=By Diablo Sound YEAR: 1999
EXTT0=By Diablo Sound
EXTT1=By Diablo Sound
EXTT2=By Diablo Sound
EXTT3=By Diablo Sound
EXTT4=By Diablo Sound
EXTT5=By Diablo Sound
EXTT6=By Diablo Sound
EXTT7=By Diablo Sound
EXTT8=By Diablo Sound
EXTT9=By Diablo Sound
EXTT10=By Diablo Sound
EXTT11=By Diablo Sound
EXTT12=By Diablo Sound
EXTT13=By Diablo Sound
EXTT14=By Diablo Sound
EXTT15=By Diablo Sound
PLAYORDER=
